<?xml version="1.0" encoding="utf-8"?>
<!-- Generator: Adobe Illustrator 26.0.2, SVG Export Plug-In . SVG Version: 6.00 Build 0)  -->
<svg version="1.2" baseProfile="tiny" id="Layer_1" xmlns="http://www.w3.org/2000/svg" xmlns:xlink="http://www.w3.org/1999/xlink"
	 x="0px" y="0px" viewBox="0 0 249.215 24.565" overflow="visible" xml:space="preserve">
<g>
	<g>
		<path id="XMLID_481_" fill="#FFFFFF" d="M19.085,14.368c0,6.235-3.479,9.784-9.542,9.784C3.479,24.152,0,20.603,0,14.368V0.072
			h0.689v14.296c0,5.787,3.238,9.094,8.853,9.094s8.853-3.307,8.853-9.094V0.072h0.689V14.368z"/>
		<path id="XMLID_478_" fill="#FFFFFF" d="M36.285,15.608l6.235,8.543H41.66l-6.132-8.406c-0.689,0.069-1.413,0.138-2.205,0.138
			h-7.475v8.268h-0.689V0.072h8.164c5.856,0,9.198,2.859,9.198,7.82C42.521,12.026,40.281,14.747,36.285,15.608z M33.323,15.195
			c5.408,0,8.509-2.653,8.509-7.303c0-4.547-3.1-7.131-8.509-7.131h-7.475v14.434H33.323z"/>
		<path id="XMLID_474_" fill="#FFFFFF" d="M58.423,0.072c4.651,0,7.338,2.17,7.338,5.96c0,3.032-1.722,5.064-4.754,5.581
			c3.824,0.448,6.028,2.687,6.028,6.097c0,4.1-3.135,6.442-8.612,6.442h-9.68V0.072H58.423z M49.432,11.336h8.991
			c4.237,0,6.649-1.929,6.649-5.305c0-3.341-2.411-5.271-6.649-5.271h-8.991V11.336z M49.432,23.462h8.991
			c5.064,0,7.958-2.101,7.958-5.787c0-3.617-2.894-5.684-7.958-5.684h-8.991V23.462z"/>
		<path id="XMLID_471_" fill="#FFFFFF" d="M74.03,16.814l-3.341,7.338h-0.827l11.024-24.08h0.758l11.161,24.08h-0.792l-3.376-7.338
			H74.03z M81.264,0.864l-6.924,15.261h13.986L81.264,0.864z"/>
		<path id="XMLID_469_" fill="#FFFFFF" d="M115.231,24.152L98.248,0.761v23.391h-0.689V0.072h1.033l16.983,23.391V0.072h0.689v24.08
			H115.231z"/>
	</g>
	<g>
		<path id="XMLID_467_" fill="#4B84AA" d="M122.737,0.179c0.046-0.047,0.089-0.092,0.127-0.132c0.483-0.079,0.962-0.033,1.44-0.04
			c0.489-0.007,0.979-0.002,1.469-0.002c0.483,0,0.967,0,1.45,0s0.967-0.001,1.45,0.001c0.15,0,0.293,0.036,0.432,0.094
			c0.065,0.027,0.117,0.07,0.155,0.123c0.092,0.13,0.18,0.261,0.259,0.4c0.136,0.24,0.297,0.466,0.433,0.707
			c0.121,0.214,0.251,0.423,0.376,0.635c0.134,0.227,0.276,0.45,0.411,0.677c0.087,0.145,0.165,0.296,0.254,0.44
			c0.136,0.219,0.25,0.456,0.478,0.614c0.212,0.036,0.339-0.09,0.44-0.265c0.112-0.193,0.23-0.382,0.345-0.573
			c0.091-0.151,0.181-0.302,0.273-0.452c0.144-0.236,0.29-0.47,0.432-0.706c0.084-0.14,0.161-0.285,0.246-0.425
			c0.143-0.236,0.296-0.466,0.431-0.707c0.086-0.154,0.186-0.291,0.305-0.422c0.057-0.062,0.139-0.043,0.186-0.103
			c0.118,0.024,0.224-0.042,0.342-0.042c1.814,0.005,3.628,0.005,5.441,0c0.107,0,0.203,0.033,0.304,0.047
			c0.051,0.007,0.119,0.033,0.151,0.108c0.029,0.068,0.018,0.112,0.001,0.179c-0.04,0.159-0.135,0.285-0.213,0.421
			c-0.093,0.163-0.194,0.322-0.292,0.482c-0.12,0.195-0.24,0.39-0.359,0.586c-0.094,0.155-0.185,0.313-0.28,0.468
			c-0.123,0.2-0.249,0.399-0.372,0.599c-0.117,0.19-0.228,0.383-0.347,0.571c-0.167,0.263-0.314,0.538-0.49,0.796
			c-0.093,0.135-0.165,0.283-0.251,0.423c-0.128,0.211-0.262,0.419-0.389,0.63c-0.088,0.145-0.166,0.296-0.254,0.44
			c-0.126,0.206-0.262,0.405-0.384,0.613c-0.116,0.198-0.239,0.391-0.359,0.586c-0.158,0.254-0.301,0.517-0.466,0.767
			c-0.093,0.141-0.168,0.295-0.256,0.439c-0.126,0.206-0.259,0.407-0.383,0.614c-0.099,0.165-0.203,0.33-0.275,0.507
			c-0.041,0.1-0.073,0.208-0.028,0.34c0.066,0.192,0.177,0.355,0.268,0.53c0.081,0.156,0.177,0.304,0.268,0.454
			c0.144,0.236,0.3,0.465,0.433,0.706c0.147,0.267,0.322,0.517,0.472,0.783c0.124,0.22,0.264,0.431,0.395,0.646
			c0.046,0.075,0.094,0.149,0.129,0.229c0.049,0.111,0.138,0.184,0.217,0.268c0.044,0.047,0.118,0.018,0.161,0.066
			c0.04-0.042,0.109-0.02,0.146-0.055c0.057-0.054,0.113-0.109,0.158-0.177c0.192-0.289,0.356-0.594,0.539-0.887
			c0.212-0.339,0.409-0.686,0.623-1.024c0.15-0.238,0.284-0.486,0.437-0.723c0.088-0.137,0.159-0.286,0.244-0.426
			c0.143-0.236,0.298-0.465,0.434-0.706c0.121-0.214,0.251-0.423,0.376-0.635c0.134-0.227,0.275-0.451,0.412-0.677
			c0.084-0.14,0.163-0.284,0.247-0.425c0.143-0.236,0.289-0.47,0.432-0.706c0.084-0.14,0.162-0.285,0.246-0.425
			c0.143-0.236,0.29-0.47,0.433-0.706c0.084-0.14,0.161-0.285,0.245-0.425c0.143-0.236,0.291-0.469,0.434-0.706
			c0.085-0.14,0.16-0.286,0.244-0.426c0.143-0.236,0.292-0.469,0.434-0.705c0.085-0.14,0.159-0.286,0.244-0.426
			c0.143-0.236,0.301-0.464,0.433-0.706c0.147-0.268,0.322-0.517,0.472-0.783c0.124-0.22,0.27-0.427,0.394-0.647
			c0.09-0.158,0.192-0.309,0.279-0.468c0.089-0.162,0.187-0.305,0.37-0.367l0.293-0.065c0.056,0,0.113,0,0.169,0
			c1.757,0,3.515,0.002,5.272-0.004c0.149-0.001,0.288,0.056,0.431,0.041c0.044,0.044,0.084,0.084,0.124,0.124
			c0.029,0.118-0.003,0.222-0.066,0.324c-0.122,0.2-0.232,0.407-0.359,0.604c-0.102,0.158-0.194,0.322-0.291,0.482
			c-0.122,0.201-0.25,0.399-0.372,0.599c-0.091,0.15-0.176,0.304-0.267,0.454c-0.122,0.201-0.249,0.399-0.372,0.599
			c-0.089,0.145-0.171,0.294-0.262,0.437c-0.131,0.209-0.249,0.426-0.389,0.63c-0.095,0.14-0.168,0.295-0.256,0.439
			c-0.162,0.266-0.329,0.529-0.491,0.795c-0.092,0.15-0.176,0.304-0.267,0.454c-0.122,0.201-0.25,0.399-0.372,0.599
			c-0.091,0.15-0.176,0.304-0.267,0.454c-0.122,0.201-0.25,0.399-0.372,0.599c-0.091,0.15-0.176,0.304-0.267,0.454
			c-0.122,0.201-0.25,0.399-0.372,0.599c-0.091,0.15-0.176,0.304-0.267,0.454c-0.162,0.266-0.329,0.529-0.491,0.795
			c-0.088,0.145-0.167,0.295-0.256,0.44c-0.126,0.206-0.258,0.408-0.383,0.613c-0.088,0.145-0.169,0.295-0.257,0.439
			c-0.125,0.206-0.257,0.408-0.382,0.614c-0.092,0.15-0.176,0.304-0.267,0.454c-0.122,0.201-0.25,0.399-0.372,0.599
			c-0.091,0.15-0.176,0.304-0.267,0.454c-0.162,0.266-0.33,0.529-0.491,0.795c-0.088,0.145-0.166,0.296-0.254,0.44
			c-0.126,0.206-0.259,0.407-0.385,0.613c-0.088,0.145-0.167,0.295-0.255,0.44c-0.126,0.206-0.258,0.407-0.384,0.613
			c-0.088,0.145-0.168,0.295-0.256,0.44c-0.166,0.271-0.337,0.538-0.503,0.809c-0.086,0.14-0.164,0.284-0.25,0.423
			c-0.129,0.21-0.25,0.426-0.387,0.631c-0.094,0.14-0.167,0.295-0.256,0.44c-0.126,0.206-0.259,0.407-0.385,0.613
			c-0.088,0.145-0.166,0.296-0.254,0.44c-0.126,0.206-0.259,0.407-0.385,0.613c-0.089,0.145-0.167,0.296-0.256,0.442
			c-0.162,0.266-0.329,0.529-0.491,0.795c-0.092,0.15-0.176,0.304-0.267,0.454c-0.122,0.201-0.249,0.399-0.372,0.599
			c-0.095,0.155-0.185,0.313-0.28,0.467c-0.086,0.14-0.166,0.287-0.269,0.415c-0.135,0.167-0.296,0.152-0.42-0.021
			c-0.06-0.083-0.122-0.171-0.174-0.264c-0.049-0.09-0.11-0.183-0.168-0.271c-0.164-0.249-0.303-0.514-0.457-0.77
			c-0.113-0.186-0.236-0.366-0.35-0.552c-0.089-0.145-0.166-0.296-0.255-0.44c-0.126-0.206-0.259-0.407-0.385-0.613
			c-0.088-0.145-0.166-0.296-0.254-0.44c-0.126-0.206-0.259-0.407-0.385-0.613c-0.088-0.145-0.167-0.295-0.255-0.44
			c-0.126-0.206-0.258-0.407-0.384-0.613c-0.088-0.145-0.167-0.295-0.256-0.44c-0.166-0.271-0.337-0.538-0.503-0.809
			c-0.086-0.14-0.164-0.284-0.25-0.423c-0.13-0.21-0.249-0.426-0.388-0.631c-0.092-0.135-0.166-0.283-0.252-0.422
			c-0.17-0.275-0.322-0.56-0.506-0.827c-0.096-0.139-0.168-0.294-0.256-0.439c-0.122-0.201-0.249-0.399-0.372-0.599
			c-0.091-0.15-0.176-0.304-0.267-0.454c-0.122-0.201-0.25-0.399-0.372-0.599c-0.091-0.15-0.176-0.304-0.267-0.454
			c-0.162-0.266-0.329-0.529-0.491-0.795c-0.088-0.145-0.168-0.295-0.256-0.44c-0.126-0.206-0.257-0.408-0.383-0.614
			c-0.092-0.15-0.176-0.304-0.267-0.454c-0.122-0.201-0.25-0.399-0.372-0.599c-0.091-0.15-0.176-0.304-0.267-0.454
			c-0.162-0.266-0.33-0.529-0.491-0.795c-0.088-0.145-0.166-0.296-0.254-0.44c-0.126-0.206-0.259-0.407-0.385-0.613
			c-0.088-0.145-0.166-0.296-0.254-0.44c-0.126-0.206-0.259-0.407-0.385-0.613c-0.088-0.145-0.164-0.298-0.256-0.439
			c-0.173-0.266-0.321-0.548-0.502-0.81c-0.093-0.134-0.164-0.284-0.251-0.423c-0.131-0.209-0.248-0.427-0.388-0.631
			c-0.093-0.135-0.165-0.283-0.252-0.422c-0.171-0.274-0.322-0.56-0.507-0.826c-0.096-0.139-0.168-0.294-0.256-0.439
			c-0.122-0.201-0.249-0.399-0.372-0.599c-0.091-0.15-0.176-0.304-0.267-0.454c-0.122-0.201-0.25-0.398-0.372-0.599
			c-0.115-0.19-0.222-0.385-0.337-0.576C122.725,0.343,122.74,0.259,122.737,0.179z"/>
		<path id="XMLID_465_" fill="#4B84AA" d="M154.913,0.036h5.581v24.115h-5.581V0.036z"/>
		<path id="XMLID_463_" fill="#4B84AA" d="M173.31,14.678l-3.238,3.376v6.098h-5.546V0.036h5.546v11.266l10.68-11.266h6.201
			l-9.991,10.749l10.576,13.367h-6.511L173.31,14.678z"/>
		<path id="XMLID_461_" fill="#4B84AA" d="M190.667,0.036h5.581v24.115h-5.581V0.036z"/>
		<path id="XMLID_459_" fill="#4B84AA" d="M222.527,0.036v24.115h-4.582L205.921,9.51v14.641h-5.512V0.036h4.616l11.989,14.642
			V0.036H222.527z"/>
		<path id="XMLID_457_" fill="#4B84AA" d="M243.752,11.909h5.022v9.636c-1.289,0.973-2.782,1.719-4.479,2.239
			c-1.697,0.52-3.405,0.78-5.123,0.78c-2.466,0-4.682-0.526-6.65-1.578c-1.968-1.052-3.512-2.511-4.632-4.377
			c-1.12-1.866-1.679-3.975-1.679-6.328c0-2.352,0.56-4.462,1.679-6.328c1.12-1.866,2.675-3.325,4.665-4.377
			c1.99-1.052,4.23-1.578,6.718-1.578c2.081,0,3.97,0.351,5.666,1.052c1.697,0.701,3.122,1.719,4.275,3.054l-3.528,3.257
			c-1.697-1.787-3.744-2.68-6.141-2.68c-1.516,0-2.862,0.317-4.038,0.95c-1.176,0.633-2.093,1.527-2.748,2.68
			c-0.656,1.153-0.984,2.477-0.984,3.97c0,1.471,0.328,2.782,0.984,3.936c0.656,1.153,1.566,2.053,2.731,2.697
			c1.165,0.645,2.494,0.967,3.987,0.967c1.583,0,3.008-0.339,4.275-1.018V11.909z"/>
	</g>
</g>
</svg>
